<svg id="Capa_1" enable-background="new 0 0 497 497" height="512" viewBox="0 0 497 497" width="512" xmlns="http://www.w3.org/2000/svg"><g><path d="m302.814 391.957 53.216 104.809.174.037 83.627.18c4.155.009 7.528-3.367 7.517-7.522-.039-15.224-.212-29.556-.678-42.77z" fill="#fff0af"/><path d="m356.03 496.766-28.645-67.161c7.603-.208 15.599-1.706 23.396-4.314.896 1.47 1.874 2.896 2.939 4.266 8.463 10.889 21.43 17.134 35.577 17.134h57.373c-.183-5.176-.411-10.181-.694-15l-177.524-75.995 70.579 141.07 17.174.037z" fill="#ffe07d"/><path d="m82.316 103.852c-15.933 13.065-22.308 31.674-20.861 47.719 1.652 18.319 15.379 39.653 38.492 43.175 16.172 2.464 36.821-2.364 45.371-11.428-12.39-33.106-32.067-83.389-32.067-83.389-11.529-1.253-21.981.284-30.935 3.923z" fill="#ffcdbe"/><path d="m101.419 190.645c-23.171-3.115-36.315-20.673-36.315-39.067 0-22.453 4.488-34.868 17.212-47.726-20.13 8.182-32.664 27.023-32.664 48.91 0 29.338 21.759 50.961 48.855 54.889 18.075 2.62 36.161-2.208 51.736-9.685-1.928-5.255-2.309-7.658-4.924-14.647-14.539 6.121-28.128 9.446-43.9 7.326z" fill="#ebae9d"/><path d="m124.146 99.929c0 40.724 22.596 64.002 32.129 81.737l165.51-31.024c.117-38.971.26-92.317.262-121.031-23.592-22.093-59.974-29.611-91.49-29.611-20.964 0-42.442 3.79-61.198 12.201-13.296 10.103-45.213 34.802-45.213 87.728z" fill="#ffcdbe"/><path d="m183.099 156.111c-4.005 3.882-11.72 10.391-18.247 15.281-3.502 2.624-8.501 1.697-10.826-2.01-10.941-17.439-25.776-36.35-25.776-69.454 0-52.926 27.813-77.625 41.108-87.728-32.024 14.361-56.108 42.203-56.108 87.728 0 46.132 25.93 67.89 36.991 98.036h171.391s.069-20.175.151-47.323z" fill="#ebae9d"/><path d="m318.178 259.423c5.441-7.515 10.133-18.119 14.489-31.86-.145-6.436 1.628-11.091 4.258-14.788 1.493-5.662 2.961-11.727 4.422-18.197 10.632-.443 21.556-6.757 21.556-17.044 0-11.121-15.236-16.7-19.568-32.397-1.389-5.032-1.595-10.278-.805-16.611 0 0-1.293-4.752-.751-7.386.622-3.021 3.586-8.854 3.586-8.854 5.891-38.886-4.755-65.291-23.318-82.675-.003 48.717-65.773 48.266-65.773 48.266s-5.836 29.241-35.42 59.595c-4.124-6.239-10.986-10.324-18.757-10.324-12.611 0-22.833 10.754-22.833 24.02 0 8.413 2.341 16.055 6.522 22.265 6.589 9.787 19.981 72.08 19.981 72.08l95.497 19.909z" fill="#c38778"/><path d="m303.374 164.106c-8.637 0-17.314-3.62-23.304-10.107-2.81-3.043-2.62-7.789.423-10.599 3.045-2.81 7.79-2.619 10.599.423 4.131 4.475 10.947 6.39 16.569 4.657 3.958-1.218 8.156 1.002 9.375 4.96 1.219 3.959-1.002 8.156-4.96 9.375-2.823.871-5.761 1.291-8.702 1.291z" fill="#8c5e5e"/><path d="m309.011 201.276c-2.409-3.369-7.094-4.147-10.463-1.739-3.369 2.409-4.148 7.094-1.739 10.463 8.105 11.335 23.46 16.764 35.914 17.35 1.429-4.521 2.823-9.379 4.194-14.577-9.834-.002-22.682-4.19-27.906-11.497z" fill="#8c5e5e"/><path d="m298.999 100.77c-4.133.271-7.265 3.841-6.994 7.974.271 4.134 3.844 7.278 7.974 6.994 25.461-1.667 35.657 7.513 38.177 10.367 1.184 1.34 2.741 2.147 4.377 2.422.287-2.306.703-4.751 1.245-7.386.622-3.024 1.141-5.971 1.578-8.856-10.464-8.622-26.974-12.786-46.357-11.515z" fill="#b46e5a"/><path d="m247.215 318.462v-55.85c12.297 4.831 30.419 10.613 46.766 10.613 9.703 0 17.515-4.572 24.198-13.803-3.13 0-19.737-.598-24.198-1.197-39.222-5.265-76.332-21.308-76.332-49.855l-.221-18.93c-13.88 0-25.053-6.219-31.642-16.006-8.07 7.822-20.66 17.386-35.544 24.531 2.998 8.17 4.913 16.949 4.913 27.004 0 26.827-8.607 52.871-16.802 79.598z" fill="#b46e5a"/><path d="m400.208 311.258c-9.003-27.331-34.721-47.069-65.067-47.069-16.122 0-30.931 5.583-42.634 14.901-10.532 13.423-18.154 39.309-11.113 55.818 7.34 17.208 24.312 57.001 24.312 57.001 6.864 12.117 29.029 11.4 39.315 7.731 2.552-11.705 63.843-57.334 63.843-57.334.009-.273.025-.542.025-.82 0-5.053-2.093-9.537-5.332-12.411 0-.004-.001-.007-.001-.011z" fill="#c38778"/><path d="m374.151 320.507c-2.726 3.119-2.406 7.857.714 10.582 3.119 2.725 7.857 2.406 10.582-.713 2.593-2.968 6.042-4.603 9.71-4.603 3.161 0 6.076 1.229 8.399 3.29-.324-6.191-1.487-12.157-3.348-17.805-1.641-.313-3.327-.485-5.051-.485-7.946 0-15.602 3.548-21.006 9.734z" fill="#b46e5a"/><path d="m365.694 362.821c-10.901 6.663-18.121 17.113-20.673 28.818-10.286 3.669-22.279 4.81-29.315.269 0 0-16.972-39.793-24.312-57.001-7.041-16.509-4.953-42.395 1.113-55.818-15.764 12.552-25.879 31.895-25.879 53.612v58.465l34.078 15.742c17.676 13.3 43.557 7.508 60.771-3.015 4.584-2.802 35.691-42.731 35.691-42.731 7.277-4.448 11.436-10.598 11.695-18.857-6.837.371-13.557 2.414-19.518 6.058z" fill="#b46e5a"/><g fill="#8c5e5e"><path d="m338.757 354.899c-2.952 0-5.899-.612-8.684-1.833-3.793-1.663-5.521-6.086-3.857-9.88 1.663-3.793 6.085-5.521 9.88-3.857 1.625.712 3.431.749 5.082.104 1.653-.646 2.955-1.896 3.667-3.521 1.664-3.793 6.089-5.522 9.88-3.858 3.794 1.663 5.521 6.086 3.858 9.88-2.321 5.295-6.565 9.369-11.95 11.472-2.551.996-5.216 1.493-7.876 1.493z"/><path d="m288.841 374.496c-2.952 0-5.899-.612-8.684-1.833-3.793-1.663-5.521-6.086-3.857-9.88 1.663-3.793 6.085-5.521 9.88-3.857 1.625.712 3.431.749 5.082.104 1.653-.646 2.955-1.896 3.667-3.521 1.664-3.793 6.089-5.522 9.88-3.858 3.794 1.663 5.521 6.086 3.858 9.88-2.321 5.295-6.565 9.369-11.95 11.472-2.551.996-5.216 1.493-7.876 1.493z"/><path d="m322.455 392.176c-.743 0-1.475-.037-2.191-.113-4.119-.437-7.104-4.131-6.666-8.25s4.135-7.106 8.25-6.666c2.624.276 7.162-1.373 8.992-3.273 2.875-2.983 7.623-3.07 10.604-.196 2.983 2.874 3.071 7.622.196 10.604-4.591 4.765-12.354 7.894-19.185 7.894z"/></g><path d="m339.03 496.766-63.386-148.615c-11.274-26.432-37.236-43.584-65.972-43.584h-56.321s-23.237 40.237-23.237 76.402c0 50.997 32.594 116.031 32.594 116.031h73l4.81-6.292 11.498 6.292z" fill="#ff9a9f"/><path d="m162.708 497c-15.965-37.433-23.909-75.461-23.909-116.781 0-26.518 7.106-51.368 14.552-75.652h-15c-7.446 24.284-14.552 49.134-14.552 75.652 0 39.593 7.294 76.163 21.949 112.083 1.156 2.833 3.901 4.698 6.961 4.698z" fill="#ff8086"/><path d="m252.016 497h-16.308l-29.942-70.203c-1.625-3.81.146-8.216 3.957-9.841 3.812-1.623 8.216.147 9.841 3.957z" fill="#ff8086"/><path d="m389.297 426.691 55.547-10c-1.748-18.589-4.661-33.615-9.481-44.017-6.712-14.484-24.574-19.838-38.195-11.512l-23.651 14.457c-7.43 4.542-11.821 11.051-13.6 18.035 3.082 12.455 13.691 33.037 29.38 33.037z" fill="#c38778"/><path d="m389.297 416.691c-15.689 0-26.298-10.582-29.381-23.037-4.463 17.52 7.534 38.037 29.381 38.037h56.679c-.307-5.229-.683-10.226-1.132-15z" fill="#b46e5a"/></g></svg>